<svg width="40" height="40" viewBox="0 0 40 40" fill="none" xmlns="http://www.w3.org/2000/svg">
<g clip-path="url(#clip0_13_225)">
<path d="M9.09094 39.8031V19.3036L4.29797 13.4875L0 10.2599V36.1855C0 38.1871 1.22266 39.8031 2.72734 39.8031H9.09094Z" fill="#4285F4"/>
<path d="M30.9091 39.8031H37.2727C38.7819 39.8031 40 38.1812 40 36.1855V10.2601L35.1319 13.9569L30.9091 19.3037V39.8031Z" fill="#34A853"/>
<path d="M9.09091 19.3037L8.43872 11.2939L9.09091 3.62781L20 14.4804L30.909 3.62781L31.6386 10.88L30.909 19.3037L20 30.1563L9.09091 19.3037Z" fill="#EA4335"/>
<path d="M30.9091 3.62807V19.3039L40 10.2602V5.43678C40 0.963204 36.15 -1.58706 33.4547 1.09585L30.9091 3.62807Z" fill="#FBBC04"/>
<path d="M0 10.2599L4.18109 14.4195L9.09094 19.3037V3.6278L6.54531 1.09557C3.84531 -1.58753 0 0.962932 0 5.4363V10.2597V10.2599Z" fill="#C5221F"/>
</g>
<defs>
<clipPath id="clip0_13_225">
<rect width="40" height="40" fill="white"/>
</clipPath>
</defs>
</svg>
