<svg width="51" height="50" viewBox="0 0 51 50" fill="none" xmlns="http://www.w3.org/2000/svg">
<path fill-rule="evenodd" clip-rule="evenodd" d="M8 12.5C8 11.837 8.26339 11.2011 8.73223 10.7322C9.20107 10.2634 9.83696 10 10.5 10H40.5C41.163 10 41.7989 10.2634 42.2678 10.7322C42.7366 11.2011 43 11.837 43 12.5C43 13.163 42.7366 13.7989 42.2678 14.2678C41.7989 14.7366 41.163 15 40.5 15H10.5C9.83696 15 9.20107 14.7366 8.73223 14.2678C8.26339 13.7989 8 13.163 8 12.5ZM8 25C8 24.337 8.26339 23.7011 8.73223 23.2322C9.20107 22.7634 9.83696 22.5 10.5 22.5H40.5C41.163 22.5 41.7989 22.7634 42.2678 23.2322C42.7366 23.7011 43 24.337 43 25C43 25.663 42.7366 26.2989 42.2678 26.7678C41.7989 27.2366 41.163 27.5 40.5 27.5H10.5C9.83696 27.5 9.20107 27.2366 8.73223 26.7678C8.26339 26.2989 8 25.663 8 25ZM8 37.5C8 36.837 8.26339 36.2011 8.73223 35.7322C9.20107 35.2634 9.83696 35 10.5 35H40.5C41.163 35 41.7989 35.2634 42.2678 35.7322C42.7366 36.2011 43 36.837 43 37.5C43 38.163 42.7366 38.7989 42.2678 39.2678C41.7989 39.7366 41.163 40 40.5 40H10.5C9.83696 40 9.20107 39.7366 8.73223 39.2678C8.26339 38.7989 8 38.163 8 37.5Z" fill="white"/>
</svg>
