<svg width="337" height="63" viewBox="0 0 337 63" fill="none" xmlns="http://www.w3.org/2000/svg">
<path d="M5.57575 45.088C4.38108 45.088 3.29308 44.7467 2.31175 44.064C1.37308 43.424 0.690417 42.592 0.26375 41.568L3.59175 40.224C3.84775 40.6507 4.12508 40.9707 4.42375 41.184C4.72242 41.3973 5.10642 41.504 5.57575 41.504C6.51442 41.504 7.13308 41.0347 7.43175 40.096L15.8158 0.223999H19.5918L32.9678 36.768L33.6718 39.264L34.3758 36.768L47.8798 0.223999H51.7198L60.6798 44H56.8398L49.6078 7.968L49.2238 5.536L48.5198 8.032L35.5278 44H31.7518L18.8238 8.096L18.1198 5.536L17.7358 8.096L11.0158 40.544C10.7598 41.824 10.1198 42.912 9.09575 43.808C8.11442 44.6613 6.94108 45.088 5.57575 45.088ZM72.1088 38.624C72.1088 39.2213 72.3008 39.7333 72.6848 40.16C73.1114 40.544 73.6021 40.736 74.1568 40.736C75.0101 40.736 75.6288 40.3733 76.0128 39.648L78.8288 41.76C78.4874 42.4853 77.8901 43.104 77.0368 43.616C76.1834 44.0853 75.2234 44.32 74.1568 44.32C72.4501 44.32 71.0421 43.7867 69.9328 42.72C68.8234 41.6533 68.2688 40.2667 68.2688 38.56V12H72.1088V38.624ZM69.9968 7.84C69.2714 7.84 68.6314 7.584 68.0768 7.072C67.5648 6.51733 67.3088 5.87733 67.3088 5.152C67.3088 4.384 67.5648 3.744 68.0768 3.232C68.6314 2.67733 69.2714 2.4 69.9968 2.4C70.7648 2.4 71.4048 2.67733 71.9167 3.232C72.4714 3.744 72.7488 4.384 72.7488 5.152C72.7488 5.87733 72.4714 6.51733 71.9167 7.072C71.4048 7.584 70.7648 7.84 69.9968 7.84ZM93.8003 25.184L101.8 12H106.024L96.2323 27.872L103.656 39.968C104.083 40.6507 104.68 40.992 105.448 40.992C106.131 40.992 106.643 40.7147 106.984 40.16L110.056 42.144C109.502 42.912 108.819 43.5307 108.008 44C107.198 44.4267 106.344 44.64 105.448 44.64C103.4 44.64 101.8 43.7227 100.648 41.888L93.8003 30.816L85.5443 44H81.3843L91.4963 28L81.2563 12H85.5443L93.8003 25.184ZM139.485 12L139.421 35.168V51.296C139.421 54.5813 138.546 57.2053 136.797 59.168C135.047 61.1733 132.722 62.176 129.821 62.176C128.029 62.176 126.386 61.728 124.893 60.832C123.442 59.9787 122.29 58.784 121.437 57.248C120.626 55.712 120.221 53.984 120.221 52.064C120.221 50.3147 120.541 48.7573 121.181 47.392C121.863 46.0267 122.781 45.0453 123.933 44.448C121.074 44.2347 118.791 43.296 117.085 41.632C115.378 39.9253 114.525 37.7493 114.525 35.104V21.216C114.525 17.8453 113.629 15.3707 111.837 13.792L114.397 11.232C115.378 11.872 116.274 12.8533 117.085 14.176C117.895 15.4987 118.322 16.928 118.365 18.464V33.44C118.365 35.9573 118.919 37.8347 120.029 39.072C121.181 40.3093 122.909 40.928 125.213 40.928C127.09 40.928 128.754 40.5227 130.205 39.712C131.698 38.9013 133.191 37.5787 134.685 35.744C135.026 35.2747 135.261 34.8693 135.389 34.528C135.517 34.144 135.581 33.632 135.581 32.992L135.645 12H139.485ZM135.709 39.008C135.154 39.904 134.642 40.608 134.173 41.12C133.703 41.5893 133.149 42.08 132.509 42.592C131.357 43.4027 130.077 44.192 128.669 44.96C126.962 45.856 125.746 46.8373 125.021 47.904C124.295 48.9707 123.933 50.3147 123.933 51.936C123.933 53.9413 124.445 55.52 125.469 56.672C126.535 57.8667 127.965 58.464 129.757 58.464C131.506 58.464 132.893 57.8453 133.917 56.608C134.983 55.3707 135.538 53.6853 135.581 51.552L135.709 39.008ZM170.405 3.808C169.722 3.808 169.189 4.04266 168.805 4.512C168.421 4.93866 168.229 5.42933 168.229 5.984H164.581C164.581 4.40533 165.135 3.06133 166.245 1.952C167.397 0.799999 168.719 0.223999 170.213 0.223999H199.205V3.808H184.229V44H180.389V3.808H170.405ZM214.956 11.36C216.236 11.36 217.516 11.552 218.796 11.936V15.52C217.558 15.2213 216.321 15.072 215.084 15.072C212.908 15.072 211.137 15.6053 209.772 16.672C208.406 17.7387 207.19 19.2533 206.124 21.216V44H202.284V21.6C202.284 18.2293 201.388 15.7547 199.596 14.176L202.156 11.616C202.924 12.0853 203.649 12.7893 204.332 13.728C205.014 14.6667 205.505 15.712 205.804 16.864C206.998 14.9013 208.193 13.5573 209.388 12.832C210.881 11.8507 212.737 11.36 214.956 11.36ZM236.694 44.64C233.494 44.64 230.784 43.9787 228.566 42.656C226.347 41.3333 224.662 39.52 223.51 37.216C222.4 34.8693 221.846 32.224 221.846 29.28C221.846 26.3787 222.379 23.5627 223.446 20.832C224.555 18.1013 226.198 15.8613 228.374 14.112C230.592 12.3627 233.28 11.488 236.438 11.488C238.528 11.488 240.47 11.8933 242.262 12.704C244.054 13.5147 245.462 14.6667 246.486 16.16C247.552 17.6533 248.086 19.3813 248.086 21.344C248.086 24.5013 246.742 26.9547 244.054 28.704C241.366 30.4107 237.654 31.2427 232.918 31.2L225.878 31.136C226.262 34.4213 227.35 36.9173 229.142 38.624C230.976 40.3307 233.494 41.184 236.694 41.184C238.614 41.184 240.384 40.928 242.006 40.416C243.67 39.8613 245.27 39.0293 246.806 37.92L248.726 40.48C247.104 41.76 245.248 42.784 243.158 43.552C241.11 44.2773 238.955 44.64 236.694 44.64ZM233.75 27.872C240.747 27.872 244.246 25.6747 244.246 21.28C244.246 19.1467 243.499 17.568 242.006 16.544C240.555 15.4773 238.763 14.944 236.63 14.944C234.24 14.944 232.214 15.6267 230.55 16.992C228.928 18.3573 227.712 20.0427 226.902 22.048C226.091 24.0533 225.686 25.9947 225.686 27.872H233.75ZM268.296 44.64C265.352 44.64 262.835 43.8933 260.744 42.4C258.654 40.9067 257.075 38.9227 256.008 36.448C254.942 33.9733 254.408 31.2427 254.408 28.256C254.408 24.9707 255.048 22.0693 256.328 19.552C257.608 16.992 259.443 15.008 261.832 13.6C264.222 12.192 267.016 11.488 270.216 11.488C271.198 11.488 272.435 11.552 273.928 11.68C275.422 11.7653 276.744 11.8933 277.896 12.064H281.736V38.496C281.736 39.3493 281.928 40.0107 282.312 40.48C282.739 40.9067 283.251 41.12 283.848 41.12C284.616 41.12 285.235 40.7573 285.704 40.032L288.456 42.208C287.816 43.104 287.091 43.7227 286.28 44.064C285.512 44.448 284.616 44.64 283.592 44.64C282.099 44.64 280.776 44.128 279.624 43.104C278.515 42.08 277.96 40.8427 277.96 39.392C276.936 41.0987 275.592 42.4 273.928 43.296C272.264 44.192 270.387 44.64 268.296 44.64ZM268.36 41.184C270.28 41.184 272.008 40.7147 273.544 39.776C275.08 38.8373 276.232 37.6 277 36.064C277.598 34.8267 277.896 33.4613 277.896 31.968V15.2L273.672 15.072L269.96 14.944C266.078 14.944 263.155 16.16 261.192 18.592C259.23 21.024 258.248 24.2027 258.248 28.128C258.248 31.7547 259.102 34.848 260.808 37.408C262.558 39.9253 265.075 41.184 268.36 41.184ZM301.712 44.64C298.811 44.64 296.678 43.8293 295.312 42.208C293.947 40.544 293.264 38.0693 293.264 34.784V4H297.104V12.128H307.152V15.584H297.104V34.784C297.104 39.0507 298.64 41.184 301.712 41.184C304.144 41.184 306.022 39.8827 307.344 37.28L310.224 39.264C309.243 41.056 308.07 42.4 306.704 43.296C305.339 44.192 303.675 44.64 301.712 44.64ZM325.421 44.768C321.111 44.768 317.101 43.104 313.389 39.776L315.501 37.216C317.122 38.5387 318.722 39.5627 320.301 40.288C321.922 40.9707 323.65 41.312 325.485 41.312C327.789 41.312 329.581 40.7787 330.861 39.712C332.183 38.6027 332.845 37.1093 332.845 35.232C332.845 34.0373 332.546 33.0773 331.949 32.352C331.394 31.584 330.626 30.9653 329.645 30.496C328.706 30.0267 326.999 29.28 324.525 28.256C322.263 27.3173 320.514 26.5067 319.277 25.824C318.039 25.1413 317.058 24.3093 316.333 23.328C315.607 22.304 315.245 21.024 315.245 19.488C315.245 16.9707 316.141 14.9653 317.933 13.472C319.725 11.936 322.114 11.168 325.101 11.168C326.637 11.168 328.151 11.3813 329.645 11.808C331.181 12.2347 332.482 12.8533 333.549 13.664L331.949 16.416C329.986 15.2213 327.767 14.624 325.293 14.624C323.33 14.624 321.815 15.008 320.749 15.776C319.682 16.544 319.149 17.632 319.149 19.04C319.149 20.1067 319.426 20.9813 319.981 21.664C320.578 22.3467 321.325 22.9227 322.221 23.392C323.159 23.8187 324.695 24.4587 326.829 25.312C329.261 26.2933 331.138 27.1893 332.461 28C333.826 28.768 334.871 29.728 335.597 30.88C336.365 31.9893 336.749 33.376 336.749 35.04C336.749 37.984 335.703 40.352 333.613 42.144C331.565 43.8933 328.834 44.768 325.421 44.768Z" fill="white"/>
</svg>
