<svg width="40" height="40" viewBox="0 0 40 40" fill="none" xmlns="http://www.w3.org/2000/svg">
<g clip-path="url(#clip0_13_238)">
<path d="M34.2857 2.5H5.71429C4.19876 2.5 2.74531 3.02678 1.67368 3.96447C0.602039 4.90215 0 6.17392 0 7.5L0 32.5C0 33.8261 0.602039 35.0979 1.67368 36.0355C2.74531 36.9732 4.19876 37.5 5.71429 37.5H34.2857C35.8012 37.5 37.2547 36.9732 38.3263 36.0355C39.398 35.0979 40 33.8261 40 32.5V7.5C40 6.17392 39.398 4.90215 38.3263 3.96447C37.2547 3.02678 35.8012 2.5 34.2857 2.5ZM33.9369 27.446L33.9295 27.4538C33.7069 27.6693 33.4437 27.8496 33.1512 27.9869C32.5709 28.2657 31.9536 28.4808 31.3131 28.6275C31.1905 28.6562 31.0742 28.7026 30.9692 28.765C30.7765 28.9141 30.7817 29.1275 30.5763 29.433C30.4245 29.6646 30.216 29.8639 29.9656 30.0166C29.3668 30.3785 28.6938 30.4012 27.9808 30.4252C27.3367 30.4466 26.6067 30.4706 25.7729 30.7119C25.4371 30.8091 25.0806 31.0005 24.6678 31.2223C23.662 31.7613 22.2856 32.4998 19.9981 32.4998C17.7106 32.4998 16.3441 31.7655 15.3458 31.228C14.93 31.0024 14.5713 30.8091 14.2259 30.7093C13.3921 30.4687 12.662 30.4437 12.0179 30.4226C11.3049 30.3986 10.632 30.3757 10.033 30.0141C9.82168 29.8856 9.63968 29.7237 9.49643 29.5367C9.21071 29.1748 9.24152 28.9273 9.02732 28.7637C8.91536 28.6983 8.7916 28.6498 8.66125 28.6204C8.02943 28.4741 7.42038 28.2609 6.84759 27.9855C6.57236 27.8573 6.3222 27.6915 6.10652 27.4945C5.51875 26.9666 5.36759 26.3402 5.59884 25.7895C5.90563 25.06 6.63196 24.8434 7.33098 24.5191C8.65027 23.892 9.68348 23.1085 10.4054 22.1844C10.6112 21.9236 10.79 21.6474 10.9397 21.3588C11.0102 21.1902 11.0087 21.0987 10.9613 21.0138C10.9104 20.9444 10.8432 20.8854 10.7641 20.8406C10.5599 20.7226 10.3551 20.6054 10.1496 20.4891C9.85768 20.3218 9.62572 20.1908 9.47741 20.1C8.91786 19.7576 8.52652 19.3938 8.28098 18.9871C8.11068 18.7057 8.01162 18.3954 7.99053 18.0775C7.96944 17.7596 8.02681 17.4414 8.15875 17.1446C8.52786 16.2912 9.45063 15.7613 10.5675 15.7613C10.803 15.7611 11.0378 15.7829 11.2679 15.8262C11.3295 15.8379 11.3903 15.8502 11.4503 15.8638C11.4406 15.2834 11.4554 14.6641 11.5147 14.0577C11.7253 11.9279 12.5783 10.8085 13.4678 9.9175C14.0378 9.35755 14.71 8.88418 15.4571 8.51664C16.8084 7.84242 18.3314 7.5 20 7.5C21.6686 7.5 23.1989 7.84242 24.5486 8.51687C25.2938 8.88437 25.9646 9.35686 26.5342 9.91531C27.4236 10.8064 28.2767 11.9238 28.4872 14.0555C28.5429 14.6563 28.5641 15.2591 28.5509 15.8616C28.6116 15.8481 28.6727 15.8355 28.734 15.8241C28.9642 15.7808 29.199 15.759 29.4344 15.7592C30.5504 15.7592 31.4719 16.2891 31.8425 17.1425C31.9739 17.4392 32.0307 17.7571 32.0091 18.0747C31.9875 18.3923 31.8881 18.7021 31.7175 18.983C31.4729 19.3893 31.0815 19.7534 30.522 20.0959C30.373 20.1886 30.1418 20.3196 29.8497 20.485C29.6358 20.606 29.4226 20.7279 29.2101 20.8508C29.1401 20.8926 29.0808 20.9467 29.0359 21.0097C28.9907 21.0914 28.9878 21.1809 29.0507 21.3384C29.2026 21.6332 29.3844 21.9153 29.594 22.1816C30.3322 23.1269 31.3965 23.9248 32.7596 24.5571C32.8922 24.6174 33.0256 24.6743 33.1561 24.7335C33.2205 24.7595 33.2962 24.7931 33.3785 24.8351C33.816 25.0478 34.1999 25.3046 34.4013 25.7845C34.6269 26.3215 34.4883 26.9297 33.9369 27.446ZM32.4441 26.0037C27.9519 24.1042 27.2359 21.1664 27.204 20.9452C27.1655 20.6812 27.1218 20.4738 27.4546 20.2052C27.7754 19.9452 29.1993 19.1748 29.5943 18.9335C30.2488 18.534 30.5348 18.1352 30.3229 17.6448C30.1746 17.3077 29.8152 17.178 29.4335 17.178C29.3135 17.1783 29.194 17.19 29.077 17.213C28.3596 17.3491 27.6629 17.6637 27.2596 17.7487C27.2112 17.7596 27.1615 17.7655 27.1114 17.7662C26.8964 17.7662 26.8187 17.6825 26.8357 17.4562C26.8861 16.77 26.9928 15.4308 26.869 14.1798C26.7008 12.4586 26.0663 11.6058 25.3126 10.8517C24.9509 10.4905 23.247 8.92562 19.9969 8.92562C16.7468 8.92562 15.0473 10.4968 14.6856 10.8594C13.9326 11.6136 13.2989 12.4664 13.1292 14.1875C13.0054 15.4385 13.1166 16.7771 13.1625 17.4638C13.1773 17.6791 13.1018 17.7738 12.8868 17.7738C12.8368 17.7731 12.787 17.7673 12.7386 17.7563C12.3362 17.6714 11.6395 17.3569 10.922 17.2207C10.8049 17.1977 10.6854 17.186 10.5654 17.1856C10.186 17.1856 9.82438 17.3134 9.67607 17.6526C9.46411 18.1429 9.7517 18.5417 10.4054 18.9412C10.8004 19.1824 12.2242 19.9535 12.5452 20.213C12.8772 20.4815 12.8342 20.689 12.7956 20.9529C12.7638 21.1709 12.0471 24.1087 7.55554 26.0114C7.2925 26.123 6.84482 26.3591 7.63411 26.7404C8.87339 27.3363 9.69759 27.2722 10.3395 27.6334C10.8835 27.9402 10.5627 28.6016 10.9576 28.8403C11.4446 29.1341 12.8846 28.8195 14.7375 29.3559C16.294 29.8047 17.2479 31.0759 20.0021 31.0759C22.7563 31.0759 23.7331 29.8024 25.2644 29.3592C27.1211 28.8229 28.5581 29.1374 29.0444 28.8436C29.4402 28.6049 29.1178 27.9434 29.6625 27.6367C30.3037 27.2755 31.1278 27.3398 32.3679 26.7405C33.1571 26.3559 32.7095 26.1198 32.4441 26.0037Z" fill="#F8FD00"/>
</g>
<defs>
<clipPath id="clip0_13_238">
<rect width="40" height="40" fill="white"/>
</clipPath>
</defs>
</svg>
